PathFileType  4	(X/Y/Z) C:\Users\antoi\Documents\MyRepositories\mobilecap\ResultsAnalysis
DataRate	CameraRate	NumFrames	NumMarkers	Units	OrigDataRate	OrigDataStartFrame	OrigNumFrames
100.0	100.0	4	51	mm	100.0	36	142
Frame#	Time	r_knee			r_shank_antsup			r_ankle			r_calc			r_5meta			r_toe			L_knee			L_shank_antsup			L_ankle			L_calc			L_5meta			L_toe			r_sh2			r_sh3			r_sh4			L_sh2			L_sh3			r_thigh1			r_thigh2			r_thigh3			r_thigh4			r_thigh5			L_thigh1			L_thigh2			L_thigh3			L_thigh4			r.ASIS			r.PSIS			L.ASIS			L.PSIS			C7			R_Shoulder			L_Shoulder			R_Sternum			L_Sternum			R_humerus			R_elbow_med			R_elbow_lat			R_forearm			R_wrist_radius			R_wrist_ulna			L_humerus			L_elbow_med			L_elbow_lat			L_forearm			L_wrist_radius			L_wrist_ulna			R_HJC			L_HJC			R_HJC_reg			L_HJC_reg			
		X1	Y1	Z1	X2	Y2	Z2	X3	Y3	Z3	X4	Y4	Z4	X5	Y5	Z5	X6	Y6	Z6	X7	Y7	Z7	X8	Y8	Z8	X9	Y9	Z9	X10	Y10	Z10	X11	Y11	Z11	X12	Y12	Z12	X13	Y13	Z13	X14	Y14	Z14	X15	Y15	Z15	X16	Y16	Z16	X17	Y17	Z17	X18	Y18	Z18	X19	Y19	Z19	X20	Y20	Z20	X21	Y21	Z21	X22	Y22	Z22	X23	Y23	Z23	X24	Y24	Z24	X25	Y25	Z25	X26	Y26	Z26	X27	Y27	Z27	X28	Y28	Z28	X29	Y29	Z29	X30	Y30	Z30	X31	Y31	Z31	X32	Y32	Z32	X33	Y33	Z33	X34	Y34	Z34	X35	Y35	Z35	X36	Y36	Z36	X37	Y37	Z37	X38	Y38	Z38	X39	Y39	Z39	X40	Y40	Z40	X41	Y41	Z41	X42	Y42	Z42	X43	Y43	Z43	X44	Y44	Z44	X45	Y45	Z45	X46	Y46	Z46	X47	Y47	Z47	X48	Y48	Z48	X49	Y49	Z49	X50	Y50	Z50	X51	Y51	Z51	

36	0.35000000	303.41416	496.76049	-70.34503	334.87502	422.99599	-89.53234	222.46154	99.22576	-96.83339	151.45297	67.41071	-130.93533	324.69540	44.11326	-63.81002	372.66661	70.00887	-121.58662	450.09802	518.92608	-355.19043	441.79908	422.93683	-361.68593	221.67722	201.82797	-337.35350	145.73775	209.01937	-288.30972	271.26090	86.58476	-367.96145	324.32239	92.35743	-318.83427	298.91133	313.20470	-67.98622	261.04942	443.79141	-55.62919	228.22931	335.93048	-55.86710	373.88599	481.65259	-358.32349	303.14304	381.67347	-364.07569	365.46992	815.95723	-38.91119	363.81107	702.38637	-46.93002	307.96000	680.57328	-18.56696	254.04347	815.05084	-12.38449	253.36745	697.31577	-28.46869	367.96658	767.71717	-398.84348	436.59817	649.39085	-378.53045	275.32923	719.49509	-349.90845	350.09327	599.85532	-336.99277	369.74398	984.33406	-81.73291	175.35933	1012.36969	-158.37394	365.67492	958.94782	-331.72445	164.28757	1006.87262	-258.63093	184.20245	1425.77941	-224.64911	289.91195	1380.91880	-52.09672	253.65213	1387.11728	-408.22861	321.33780	1382.86660	-210.16406	323.69367	1384.47431	-253.15837	318.52807	1251.23571	9.15733	290.42442	1030.65737	-15.33091	317.76904	1052.16966	48.53022	433.22355	968.07580	36.49313	519.97791	864.20544	18.42650	502.04723	846.92842	44.46380	270.66161	1272.12148	-469.87767	222.71675	1037.86274	-421.55691	247.43579	1059.62344	-492.87493	324.92794	970.89243	-485.81322	378.40978	821.38884	-489.39422	357.29218	817.98875	-517.26391	293.55031	901.21388	-97.90355	288.29469	884.99225	-303.67215	305.84153	902.07109	-105.16888	287.66282	893.04630	-269.78215	
37	0.36000000	305.96891	496.89646	-69.87097	336.76165	422.96069	-88.94271	222.55324	99.48809	-96.87055	151.53779	67.56899	-131.01470	324.75143	44.07724	-63.73308	372.82755	69.87000	-121.52695	466.58811	522.47963	-354.77205	461.71731	425.71165	-361.49587	254.01371	192.67891	-335.99380	178.01533	195.42439	-286.49504	310.07489	80.77167	-367.04240	362.93728	89.62243	-318.29624	300.03801	313.37274	-67.57538	262.97979	444.19143	-55.29898	229.55790	336.51874	-55.71622	390.81682	480.73076	-357.58373	325.37608	377.14560	-362.99949	373.84937	814.88548	-38.33296	370.13053	701.51788	-46.54540	313.95947	680.55247	-18.40774	262.48296	815.85230	-11.95391	259.59455	698.29166	-28.35114	381.21932	770.76106	-398.86271	451.55716	653.30913	-378.22611	288.87039	721.00203	-351.75931	365.15429	602.12956	-338.66234	380.54283	984.40788	-80.66944	186.38515	1013.41056	-157.59603	376.69991	960.32471	-330.72569	175.34303	1008.45397	-257.80380	195.06856	1426.84903	-224.07571	301.95525	1383.21582	-52.23325	262.67230	1387.51444	-407.93704	332.12924	1384.60217	-210.54858	334.18995	1385.97802	-253.50433	332.12165	1253.79502	8.87749	306.18136	1033.00294	-15.47981	334.02161	1054.69639	47.97024	450.54559	972.63184	33.67453	539.42496	870.86985	13.33245	522.14481	853.01111	39.46829	277.83533	1272.38259	-469.64797	229.36429	1038.63647	-419.74919	252.91059	1060.00497	-491.58595	329.55301	970.43525	-485.93807	380.89492	820.15099	-490.40675	359.38009	817.10331	-517.90812	304.08115	901.61012	-97.39703	299.11492	886.43637	-303.25244	316.49402	902.50889	-104.53296	298.35444	894.36741	-269.15202	
38	0.37000000	308.68841	497.00468	-69.40831	338.75330	422.90734	-88.41200	222.70783	99.75317	-96.93644	151.62250	67.79345	-131.11449	324.80179	44.04595	-63.66680	372.99537	69.69400	-121.49598	482.38259	525.52419	-354.48479	481.19048	428.11952	-361.52332	287.12074	183.36978	-335.01035	211.41333	181.56231	-285.10892	349.52545	75.31072	-366.67347	402.03914	87.20719	-318.28959	301.22261	313.49946	-67.19985	265.03501	444.56210	-54.96436	231.00694	337.08476	-55.55528	407.39092	479.09034	-357.26864	347.79072	372.02882	-362.36848	382.26562	813.72512	-37.78216	376.53711	700.57990	-46.23283	320.06179	680.45862	-18.23208	270.97738	816.51213	-11.58053	265.92818	699.16174	-28.15837	394.13167	773.44114	-398.90360	465.99204	656.77587	-377.92725	302.10583	722.37442	-353.50761	379.58849	604.10736	-340.47127	391.35387	984.25207	-79.65569	197.41387	1014.23215	-156.82872	387.75298	961.33357	-329.77659	186.42580	1009.78026	-256.98505	205.96512	1427.64486	-223.61132	314.11490	1385.29780	-52.52591	271.73056	1387.61136	-407.72914	343.00518	1386.01283	-211.05545	344.73939	1387.16695	-253.96540	345.75653	1256.19280	8.51134	321.82841	1035.09733	-15.48669	350.23963	1057.13681	47.49282	467.74404	977.14396	30.73833	558.58262	877.47583	8.17482	542.01117	859.06545	34.45175	285.01600	1272.35861	-469.44922	236.13207	1039.09710	-418.06129	258.56339	1060.12283	-490.40473	334.33431	969.76212	-486.12999	383.61008	818.74072	-491.46631	361.77468	816.05522	-518.57081	314.61528	901.78806	-96.88239	309.91604	887.56292	-302.81103	327.12949	902.68977	-103.92961	309.06765	895.37290	-268.56493	
39	0.38000000	311.57868	497.08203	-68.97412	340.86659	422.83851	-87.95361	222.92123	100.03421	-97.02621	151.71696	68.11087	-131.23439	324.84902	44.00942	-63.61774	373.17566	69.49099	-121.47383	497.44183	528.00481	-354.29385	500.23446	430.17782	-361.71879	320.96026	174.06863	-334.45615	245.89533	167.62265	-284.21285	389.55992	70.33648	-366.85788	441.61968	85.26718	-318.79294	302.50416	313.59400	-66.86264	267.22796	444.90615	-54.64845	232.57677	337.63448	-55.40082	423.63546	476.75053	-357.36990	370.44869	366.39447	-362.22008	390.73374	812.47877	-37.26425	383.04437	699.56571	-46.00803	326.28255	680.28489	-18.06552	279.52432	817.02450	-11.25456	272.40149	699.91009	-27.90533	406.74069	775.70299	-398.95289	479.88222	659.72105	-377.60343	315.03137	723.58127	-355.10118	393.37589	605.74699	-342.32612	402.20262	983.86626	-78.68811	208.44744	1014.81197	-156.08461	398.84875	961.99879	-328.87275	197.53094	1010.81795	-256.19070	216.89792	1428.16229	-223.26688	326.38901	1387.14424	-52.97742	280.84650	1387.39011	-407.61425	353.97855	1387.07049	-211.68904	355.35100	1388.01325	-254.53885	359.44587	1258.40500	8.05098	337.37325	1036.91321	-15.37965	366.43929	1059.46503	47.07643	484.89470	981.60382	27.64211	577.44364	883.96247	2.97422	561.67212	865.04451	29.44510	292.29135	1272.02522	-469.27614	243.02445	1039.22667	-416.50158	264.41968	1059.94983	-489.32615	339.29605	968.84544	-486.38385	386.59642	817.13802	-492.57553	364.48621	814.81399	-519.25228	325.17791	901.73792	-96.36845	320.73103	888.37276	-302.35953	337.77703	902.63320	-103.34497	319.82136	896.06453	-268.00238	
